<?xml version="1.0" standalone="no"?>
<!DOCTYPE svg PUBLIC "-//W3C//DTD SVG 20010904//EN"
 "http://www.w3.org/TR/2001/REC-SVG-20010904/DTD/svg10.dtd">
<svg version="1.0" xmlns="http://www.w3.org/2000/svg"
 width="512.000000pt" height="512.000000pt" viewBox="0 0 512.000000 512.000000"
 preserveAspectRatio="xMidYMid meet">
<metadata>
Created by potrace 1.11, written by Peter Selinger 2001-2013
</metadata>
<g transform="translate(0.000000,512.000000) scale(0.100000,-0.100000)"
fill="#000000" stroke="none">
<path d="M2391 5099 c-225 -58 -357 -198 -345 -364 8 -101 86 -206 196 -265
l45 -23 -1 -150 -1 -150 -25 -7 c-14 -4 -50 -13 -80 -20 -148 -34 -347 -118
-478 -203 l-69 -45 -106 107 -107 106 16 60 c36 135 12 256 -67 334 -59 58
-111 76 -219 76 -82 0 -105 -5 -167 -30 -100 -40 -125 -63 -121 -111 3 -34 -2
-42 -51 -89 -47 -45 -58 -51 -80 -45 -36 10 -73 -13 -98 -64 -62 -121 -77
-183 -71 -277 10 -162 125 -270 290 -271 40 0 98 7 128 16 l54 16 107 -106
107 -107 -45 -69 c-88 -137 -170 -334 -211 -508 l-17 -75 -151 -1 -151 -1 -23
45 c-101 189 -294 249 -455 141 -81 -54 -160 -195 -184 -329 -13 -73 -6 -252
12 -316 23 -81 75 -177 123 -228 88 -94 220 -125 327 -78 54 24 141 108 178
173 l27 46 145 -1 c80 -1 148 -4 151 -7 3 -3 10 -26 15 -50 18 -86 34 -141 71
-243 27 -74 91 -202 141 -282 22 -33 39 -65 39 -70 0 -5 -47 -56 -103 -112
l-104 -103 -56 16 c-259 75 -458 -94 -410 -349 50 -272 322 -517 582 -525 222
-6 350 178 287 414 l-16 60 107 106 106 107 69 -45 c138 -89 350 -176 523
-215 l60 -13 1 -151 0 -151 -44 -23 c-122 -65 -195 -173 -195 -289 -1 -196
205 -347 483 -357 221 -7 354 46 493 196 28 30 54 123 51 179 -6 104 -83 211
-196 271 l-45 23 1 151 1 151 40 9 c204 44 441 144 586 247 l25 18 108 -108
107 -108 -16 -56 c-25 -88 -23 -183 7 -248 50 -109 133 -162 260 -166 85 -2
150 13 236 55 60 29 75 49 70 95 -3 28 4 39 52 83 48 45 58 50 83 43 36 -10
73 21 109 92 78 155 75 324 -8 422 -31 38 -107 85 -152 94 -49 10 -140 5 -198
-12 l-57 -16 -107 106 -107 107 34 52 c90 136 171 325 212 496 l26 105 151 1
151 1 23 -45 c157 -294 496 -248 610 84 31 88 35 117 34 249 -1 101 -5 133
-27 200 -62 189 -186 300 -334 298 -111 -1 -219 -76 -283 -195 l-23 -45 -151
1 -150 1 -9 35 c-5 19 -13 53 -19 75 -39 157 -121 349 -201 473 l-45 70 108
107 109 107 34 -11 c56 -19 79 -22 148 -23 111 -1 209 58 262 157 28 52 33
182 10 257 -109 370 -562 604 -784 406 -23 -21 -85 -109 -81 -115 1 -2 2 -4 1
-5 -15 -50 -12 -164 5 -228 l16 -55 -106 -106 -106 -106 -90 56 c-49 31 -93
56 -96 56 -4 1 -26 11 -50 23 -50 27 -182 79 -232 92 -19 5 -69 17 -110 27
l-75 19 -1 150 -1 151 45 23 c69 37 138 105 168 166 90 184 -39 383 -296 459
-85 26 -268 28 -359 4z"/>
</g>
</svg>
